<svg xmlns="http://www.w3.org/2000/svg" xmlns:xlink="http://www.w3.org/1999/xlink" viewBox="-1732 -4811 22 22"><defs><style>.a{fill:none;}.b{clip-path:url(#a);}.c{fill:#b6d6ff;}.d{fill:#5b93fc;}</style><clipPath id="a"><path class="a" d="M0-34.82H22v22H0Z" transform="translate(0 34.82)"/></clipPath></defs><g transform="translate(-1732 -4811)"><g class="b" transform="translate(0 0)"><g transform="translate(0 0)"><path class="c" d="M-12.82-6.41a11,11,0,0,1-11,11,11,11,0,0,1-11-11,11,11,0,0,1,11-11,11,11,0,0,1,11,11" transform="translate(34.82 17.41)"/></g><g transform="translate(0.154 9.671)"><path class="d" d="M-12.7-1.4S-13.9.008-17.136.008c-4.171,0-6.587-3.817-10.978-3.817a9.083,9.083,0,0,0-6.38,3.132c0,2.611,3.554,9.2,11,9.2C-16.776,8.52-12.7,2.356-12.7-1.4c0-.329.028.321,0,0" transform="translate(34.494 3.809)"/></g></g></g></svg>