<svg xmlns="http://www.w3.org/2000/svg" xmlns:xlink="http://www.w3.org/1999/xlink" viewBox="672 1523 7.717 15.428"><defs><style>.a{fill:none;}.b{clip-path:url(#a);}.c{fill:#516996;}</style><clipPath id="a"><path class="a" d="M0-15.428H7.717V0H0Z" transform="translate(0 15.428)"/></clipPath></defs><g transform="translate(672 1523)"><g class="b"><path class="c" d="M0,0A7.248,7.248,0,0,1,1.355.161a.407.407,0,0,0,.3-.06.364.364,0,0,0,.161-.262L2.09-2.12a.4.4,0,0,0-.281-.422,8.289,8.289,0,0,0-2.261-.3c-2.4,0-3.566,1.145-3.566,3.516V1.708H-5.243a.381.381,0,0,0-.382.381V4.1a.384.384,0,0,0,.382.392h1.225V12.2a.38.38,0,0,0,.382.38h2.511a.377.377,0,0,0,.371-.38V4.49H1.275a.391.391,0,0,0,.382-.362L1.8,2.12a.381.381,0,0,0-.1-.292.358.358,0,0,0-.271-.12H-.754V.824C-.754.161-.684,0,0,0" transform="translate(5.625 2.843)"/></g></g></svg>