<svg xmlns="http://www.w3.org/2000/svg" xmlns:xlink="http://www.w3.org/1999/xlink" viewBox="808 1525 14 11"><defs><style>.a{fill:#516996;}.b{clip-path:url(#a);}</style><clipPath id="a"><path class="a" d="M0-11H14V0H0Z" transform="translate(0 11)"/></clipPath></defs><g transform="translate(808 1525)"><g class="b"><path class="a" d="M0,0A1.259,1.259,0,0,0-1.25-1.25h-11.5A1.267,1.267,0,0,0-14,.172a3.045,3.045,0,0,0,1.344,1.969c1.211.843,2.437,1.687,3.648,2.539.508.351,1.367,1.07,2,1.07h.016c.633,0,1.492-.719,2-1.07,1.211-.852,2.437-1.7,3.656-2.539A2.821,2.821,0,0,0,0,0M0,2.3a4.62,4.62,0,0,1-.781.68c-1.3.882-2.617,1.773-3.891,2.695A4.284,4.284,0,0,1-6.992,6.75h-.016a4.284,4.284,0,0,1-2.32-1.078c-1.274-.93-2.586-1.813-3.883-2.695A4.379,4.379,0,0,1-14,2.3V8.5a1.253,1.253,0,0,0,1.25,1.25h11.5A1.253,1.253,0,0,0,0,8.5Z" transform="translate(14 1.25)"/></g></g></svg>