<svg xmlns="http://www.w3.org/2000/svg" xmlns:xlink="http://www.w3.org/1999/xlink" viewBox="-1732 -4648 22 22"><defs><style>.a,.e{fill:none;}.b{clip-path:url(#a);}.c{fill:#b6d6ff;}.d{fill:#5b93fc;}.e{stroke:#5b93fc;}</style><clipPath id="a"><path class="a" d="M0-34.82H22v22H0Z" transform="translate(0 34.82)"/></clipPath></defs><g transform="translate(-1732 -4648)"><g class="b" transform="translate(0 0)"><g transform="translate(0 0)"><path class="c" d="M-12.82-6.41a11,11,0,0,1-11,11,11,11,0,0,1-11-11,11,11,0,0,1,11-11,11,11,0,0,1,11,11" transform="translate(34.82 17.41)"/></g><g transform="translate(7.658 5.078)"><path class="d" d="M-.018-4.907a.434.434,0,0,1,.063-.449A.6.6,0,0,1,.5-5.51H.82a.6.6,0,0,1,.406.121.973.973,0,0,1,.237.353,1.53,1.53,0,0,0,.664.795,2.115,2.115,0,0,0,1.125.294,2.11,2.11,0,0,0,1.314-.384,1.265,1.265,0,0,0,.5-1.064.959.959,0,0,0-.441-.878,4.53,4.53,0,0,0-1.167-.481L2.273-7.087a5.08,5.08,0,0,1-.748-.282A3.007,3.007,0,0,1,.82-7.83a2.178,2.178,0,0,1-.523-.7,2.21,2.21,0,0,1-.2-.981,2.144,2.144,0,0,1,.685-1.616,3.224,3.224,0,0,1,1.8-.82v-.885a.477.477,0,0,1,.14-.372.578.578,0,0,1,.4-.128h.251a.583.583,0,0,1,.406.128.484.484,0,0,1,.139.372v.885a3.377,3.377,0,0,1,1.475.583,2.237,2.237,0,0,1,.861,1.147.368.368,0,0,1-.042.449.68.68,0,0,1-.475.154H5.474a.662.662,0,0,1-.425-.128,1.27,1.27,0,0,1-.287-.334,1.33,1.33,0,0,0-.608-.635,2,2,0,0,0-.9-.2,2.046,2.046,0,0,0-1.125.308,1.046,1.046,0,0,0-.481.948,1,1,0,0,0,.377.865,3.7,3.7,0,0,0,1.119.494l1.188.333a3.965,3.965,0,0,1,1.712.9A2.066,2.066,0,0,1,6.636-5.51a2.286,2.286,0,0,1-.747,1.762,3.468,3.468,0,0,1-1.965.84v.922a.483.483,0,0,1-.139.372.584.584,0,0,1-.406.128H3.126a.578.578,0,0,1-.4-.128.476.476,0,0,1-.14-.372v-.922a3.507,3.507,0,0,1-1.72-.66,2.272,2.272,0,0,1-.88-1.34" transform="translate(0.049 13.329)"/></g><g transform="translate(7.658 5.078)"><path class="e" d="M-.018-4.907a.434.434,0,0,1,.063-.449A.6.6,0,0,1,.5-5.51H.82a.6.6,0,0,1,.406.121.973.973,0,0,1,.237.353,1.53,1.53,0,0,0,.664.795,2.115,2.115,0,0,0,1.125.294,2.11,2.11,0,0,0,1.314-.384,1.265,1.265,0,0,0,.5-1.064.959.959,0,0,0-.441-.878,4.53,4.53,0,0,0-1.167-.481L2.273-7.087a5.08,5.08,0,0,1-.748-.282A3.007,3.007,0,0,1,.82-7.83a2.178,2.178,0,0,1-.523-.7,2.21,2.21,0,0,1-.2-.981,2.144,2.144,0,0,1,.685-1.616,3.224,3.224,0,0,1,1.8-.82v-.885a.477.477,0,0,1,.14-.372.578.578,0,0,1,.4-.128h.251a.583.583,0,0,1,.406.128.484.484,0,0,1,.139.372v.885a3.377,3.377,0,0,1,1.475.583,2.237,2.237,0,0,1,.861,1.147.368.368,0,0,1-.042.449.68.68,0,0,1-.475.154H5.474a.662.662,0,0,1-.425-.128,1.27,1.27,0,0,1-.287-.334,1.33,1.33,0,0,0-.608-.635,2,2,0,0,0-.9-.2,2.046,2.046,0,0,0-1.125.308,1.046,1.046,0,0,0-.481.948,1,1,0,0,0,.377.865,3.7,3.7,0,0,0,1.119.494l1.188.333a3.965,3.965,0,0,1,1.712.9A2.066,2.066,0,0,1,6.636-5.51a2.286,2.286,0,0,1-.747,1.762,3.468,3.468,0,0,1-1.965.84v.922a.483.483,0,0,1-.139.372.584.584,0,0,1-.406.128H3.126a.578.578,0,0,1-.4-.128.476.476,0,0,1-.14-.372v-.922a3.507,3.507,0,0,1-1.72-.66A2.272,2.272,0,0,1-.018-4.907Z" transform="translate(0.049 13.329)"/></g></g></g></svg>