<svg xmlns="http://www.w3.org/2000/svg" xmlns:xlink="http://www.w3.org/1999/xlink" viewBox="-1732 -4703 23 23"><defs><style>.a{fill:none;}.b{clip-path:url(#a);}.c{fill:#b6d6ff;}.d{fill:#5b93fc;}</style><clipPath id="a"><path class="a" d="M0-34.739H23v23H0Z" transform="translate(0 34.739)"/></clipPath></defs><g transform="translate(-1732 -4703)"><g class="b" transform="translate(0 0)"><g transform="translate(0 0)"><path class="c" d="M-11.74-5.5v1.439a1.437,1.437,0,0,1-1.439,1.436H-14.9a8.52,8.52,0,0,1-.916,2.217L-14.6.806a1.442,1.442,0,0,1,0,2.035h0l-1.015,1.018a1.442,1.442,0,0,1-2.035,0h0l-1.217-1.215a8.688,8.688,0,0,1-2.217.915V5.277a1.439,1.439,0,0,1-1.44,1.438H-23.96A1.437,1.437,0,0,1-25.4,5.277V3.559a8.62,8.62,0,0,1-2.217-.915l-1.218,1.215a1.441,1.441,0,0,1-2.034,0s0,0,0,0l-1.016-1.015a1.44,1.44,0,0,1,0-2.034h0l1.216-1.22a8.474,8.474,0,0,1-.916-2.217H-33.3A1.437,1.437,0,0,1-34.74-4.064V-5.5A1.437,1.437,0,0,1-33.3-6.94h1.721a8.572,8.572,0,0,1,.916-2.219l-1.218-1.217a1.437,1.437,0,0,1,0-2.033l1.017-1.016a1.438,1.438,0,0,1,2.035,0h0l1.221,1.214a8.572,8.572,0,0,1,2.217-.914v-1.722a1.437,1.437,0,0,1,1.436-1.437h1.437a1.439,1.439,0,0,1,1.44,1.437v1.722a8.639,8.639,0,0,1,2.217.914l1.216-1.218a1.442,1.442,0,0,1,2.036,0l1.016,1.016a1.438,1.438,0,0,1,0,2.033h0l-1.216,1.22A8.619,8.619,0,0,1-14.9-6.94h1.721A1.437,1.437,0,0,1-11.74-5.5m-8.625.721A2.875,2.875,0,0,1-23.242-1.91a2.873,2.873,0,0,1-2.874-2.872,2.875,2.875,0,0,1,2.874-2.875,2.876,2.876,0,0,1,2.877,2.875" transform="translate(34.74 16.284)"/></g><g transform="translate(7.799 7.749)"><path class="d" d="M-3.778-1.889a3.7,3.7,0,0,1-3.7,3.7,3.7,3.7,0,0,1-3.7-3.7,3.7,3.7,0,0,1,3.7-3.7,3.7,3.7,0,0,1,3.7,3.7" transform="translate(11.18 5.591)"/></g></g></g></svg>