<?xml version="1.0" encoding="utf-8"?>
<!-- Generator: Adobe Illustrator 16.0.0, SVG Export Plug-In . SVG Version: 6.00 Build 0)  -->
<!DOCTYPE svg PUBLIC "-//W3C//DTD SVG 1.1//EN" "http://www.w3.org/Graphics/SVG/1.1/DTD/svg11.dtd">
<svg version="1.1" id="Layer_1" xmlns="http://www.w3.org/2000/svg" xmlns:xlink="http://www.w3.org/1999/xlink" x="0px" y="0px"
	 width="99.997px" height="99.998px" viewBox="-1731.714 -4577.001 99.997 99.998"
	 enable-background="new -1731.714 -4577.001 99.997 99.998" xml:space="preserve">
<g transform="translate(-1731.717 -4577)">
	<circle fill="#FFFFFF" cx="53.119" cy="50.073" r="39.598"/>
	
		<rect x="42.968" y="43.278" transform="matrix(-0.9481 0.318 -0.318 -0.9481 113.332 81.6438)" fill="#4E8CFF" width="14.068" height="13.59"/>
	<path fill="#4E8CFF" d="M95.809,36.248C85.496,1.87,70.626-6.122,36.252,4.191C1.878,14.504-6.118,29.374,4.195,63.748
		s25.184,42.37,59.558,32.057C98.126,85.492,106.122,70.626,95.809,36.248z M78.457,58.556l-6.476,2.16l2.236,6.708
		c0.906,2.715-0.56,5.651-3.273,6.561c-0.564,0.197-1.162,0.279-1.758,0.242c-2.166-0.089-4.063-1.48-4.799-3.52l-2.236-6.708
		l-13.35,4.472l2.236,6.708c0.902,2.715-0.564,5.649-3.278,6.556c-0.564,0.197-1.161,0.279-1.758,0.242
		c-2.166-0.089-4.062-1.48-4.798-3.52l-2.236-6.708l-6.476,2.16c-0.563,0.197-1.161,0.279-1.757,0.241
		c-2.166-0.089-4.063-1.48-4.799-3.52c-0.902-2.715,0.564-5.649,3.278-6.557l6.476-2.164l-4.315-12.872l-6.476,2.16
		c-0.563,0.197-1.161,0.279-1.758,0.242c-2.166-0.089-4.062-1.48-4.798-3.52c-0.903-2.716,0.564-5.649,3.278-6.557l6.476-2.16
		l-2.236-6.708c-0.905-2.717,0.563-5.653,3.28-6.559s5.653,0.563,6.559,3.281l2.236,6.708l13.35-4.472l-2.236-6.708
		c-0.905-2.717,0.563-5.653,3.28-6.559s5.653,0.563,6.559,3.281l0,0l2.236,6.708l6.476-2.16c2.717-0.905,5.653,0.563,6.559,3.28
		s-0.563,5.653-3.28,6.559l0,0l-6.476,2.16l4.315,12.871l6.476-2.16c2.717-0.905,5.653,0.563,6.559,3.28
		c0.905,2.717-0.563,5.653-3.28,6.559L78.457,58.556z"/>
</g>
</svg>
