<svg xmlns="http://www.w3.org/2000/svg" xmlns:xlink="http://www.w3.org/1999/xlink" viewBox="-4755.429 -4748 49.231 48.967"><defs><style>.a{fill:none;}.b{clip-path:url(#a);}.c{fill:#ecac43;}.d{fill:#52c499;}.e{fill:#dd3073;}.f{fill:#392438;}.g{fill:#ba232a;}.h{fill:#7cdee1;}.i{fill:#238b73;}.j{fill:#618039;}</style><clipPath id="a"><path class="a" d="M0-2499.223H49.231v48.967H0Z" transform="translate(0 2499.223)"/></clipPath></defs><g transform="translate(-4755.429 -4748)"><g class="b" transform="translate(0 0)"><g transform="translate(23.369 0)"><path class="c" d="M-425.852-150.877a4.39,4.39,0,0,0-5.526-2.8,4.357,4.357,0,0,0-2.815,5.5l11.34,34.7a4.391,4.391,0,0,0,5.335,2.7,4.322,4.322,0,0,0,3-5.4l-11.337-34.7" transform="translate(434.41 153.892)"/></g><g transform="translate(5.798 5.679)"><path class="d" d="M-425.875-150.877a4.391,4.391,0,0,0-5.526-2.8,4.357,4.357,0,0,0-2.816,5.5l11.34,34.7a4.39,4.39,0,0,0,5.335,2.7,4.322,4.322,0,0,0,3-5.4l-11.336-34.7" transform="translate(434.433 153.893)"/></g><g transform="translate(5.709 23.244)"><path class="e" d="M-2015.014-425.9a4.357,4.357,0,0,0,2.815-5.5,4.39,4.39,0,0,0-5.526-2.8l-34.889,11.279a4.357,4.357,0,0,0-2.719,5.306,4.352,4.352,0,0,0,5.428,2.988l34.89-11.276" transform="translate(2055.505 434.414)"/></g><g transform="translate(13.162 30.567)"><path class="f" d="M-134.878-549.908l8.339-2.695-2.71-8.295-8.339,2.7,2.71,8.294" transform="translate(137.588 560.898)"/></g><g transform="translate(30.732 24.887)"><path class="g" d="M-134.888-549.986l8.339-2.695-2.71-8.3-8.339,2.7,2.71,8.3" transform="translate(137.598 560.977)"/></g><g transform="translate(0 5.767)"><path class="h" d="M-2015.018-425.909a4.357,4.357,0,0,0,2.816-5.5,4.39,4.39,0,0,0-5.526-2.8l-34.889,11.279a4.355,4.355,0,0,0-2.719,5.306,4.352,4.352,0,0,0,5.428,2.987l34.89-11.276" transform="translate(2055.508 434.42)"/></g><g transform="translate(7.451 13.091)"><path class="i" d="M-134.888-549.928l8.34-2.7c-1.024-3.136-1.976-6.051-2.709-8.295l-8.341,2.7,2.71,8.294" transform="translate(137.598 560.918)"/></g><g transform="translate(25.021 7.41)"><path class="j" d="M-134.888-550.024l8.34-2.7q-1.355-4.148-2.71-8.3l-8.341,2.7,2.71,8.3" transform="translate(137.598 561.016)"/></g></g></g></svg>