<svg xmlns="http://www.w3.org/2000/svg" xmlns:xlink="http://www.w3.org/1999/xlink" viewBox="-4357.134 -4975.142 650.11 404.189"><defs><style>.a,.e{fill:#fff;}.a{stroke:#c6d2e8;}.b,.r{fill:#f0f4fa;}.b{stroke:#f0f4fa;stroke-width:2px;}.c{fill:#516996;}.d{fill:#2d4676;}.f{fill:#ff6058;}.g{fill:#ffbc27;}.h{fill:#23c93c;}.i,.s,.u{fill:#c6d2e8;}.j{fill:#6e82a2;}.j,.u{font-size:18px;font-family:Helvetica;}.k{fill:#7eff91;}.l{fill:#92abd9;}.m{clip-path:url(#c);}.n{fill:#78e6fa;}.o{fill:#ffd25c;}.p{fill:#ff649a;}.q{fill:#4fe0b4;}.s{font-size:13px;font-family:AvenirNext-Medium, Avenir Next;font-weight:500;}.t{fill:#4e8cff;}.v{fill:#216fff;}.w{fill:#95baff;}.x{stroke:none;}.y{fill:none;}.z{filter:url(#d);}.aa{filter:url(#a);}</style><filter id="a" x="-4357.134" y="-4975.142" width="650.11" height="404.189" filterUnits="userSpaceOnUse"><feOffset dy="4" input="SourceAlpha"/><feGaussianBlur stdDeviation="10" result="b"/><feFlood flood-color="#3e5889" flood-opacity="0.333"/><feComposite operator="in" in2="b"/><feComposite in="SourceGraphic"/></filter><clipPath id="c"><path class="a" d="M0-6.4H12.469v12H0Z" transform="translate(0 6.403)"/></clipPath><filter id="d" x="-3920.923" y="-4864.741" width="211.899" height="282.788" filterUnits="userSpaceOnUse"><feOffset dx="-2" dy="-7" input="SourceAlpha"/><feGaussianBlur stdDeviation="10" result="e"/><feFlood flood-color="#394780" flood-opacity="0.2"/><feComposite operator="in" in2="e"/><feComposite in="SourceGraphic"/></filter></defs><g transform="translate(-4886 -5075)"><g class="aa" transform="matrix(1, 0, 0, 1, 4886, 5075)"><g class="b" transform="translate(-4327.13 -4949.14)"><rect class="x" width="590.11" height="344.189" rx="8"/><rect class="y" x="1" y="1" width="588.11" height="342.189" rx="7"/></g></g><path class="c" d="M16,0H135.055a0,0,0,0,1,0,0V344.189a0,0,0,0,1,0,0H16a16,16,0,0,1-16-16V16A16,16,0,0,1,16,0Z" transform="translate(559.37 125.858)"/><path class="d" d="M8,0H30.8a8,8,0,0,1,8,8V344.189a0,0,0,0,1,0,0H8a8,8,0,0,1-8-8V8A8,8,0,0,1,8,0Z" transform="translate(558.866 125.858)"/><path class="e" d="M8,0H582.11a8,8,0,0,1,8,8V28.724a0,0,0,0,1,0,0H0a0,0,0,0,1,0,0V8A8,8,0,0,1,8,0Z" transform="translate(558.866 125.858)"/><ellipse class="f" cx="3.528" cy="3.528" rx="3.528" ry="3.528" transform="translate(570.457 138.961)"/><ellipse class="g" cx="3.528" cy="3.528" rx="3.528" ry="3.528" transform="translate(586.079 138.961)"/><ellipse class="h" cx="3.528" cy="3.528" rx="3.528" ry="3.528" transform="translate(601.701 138.961)"/><rect class="i" width="21.669" height="21.669" rx="3" transform="translate(567.433 172.725)"/><rect class="e" width="21.669" height="21.669" rx="3" transform="translate(567.433 210.016)"/><rect class="i" width="21.669" height="21.669" rx="3" transform="translate(566.929 247.307)"/><path class="e" d="M0,0H0A2.016,2.016,0,0,1,2.016,2.016V19.654A2.016,2.016,0,0,1,0,21.669H0a0,0,0,0,1,0,0V0A0,0,0,0,1,0,0Z" transform="translate(558.866 210.016)"/><rect class="i" width="21.669" height="21.669" rx="3" transform="translate(566.929 284.599)"/><text class="j" transform="translate(571.968 299.102)"><tspan x="0" y="0">+</tspan></text><rect class="e" width="65.512" height="7.055" rx="3.528" transform="translate(613.291 172.725)"/><rect class="i" width="35.78" height="4.031" rx="2.016" transform="translate(626.394 190.362)"/><rect class="k" width="5.543" height="5.543" rx="2.772" transform="translate(613.291 189.354)"/><rect class="l" width="40.315" height="4.535" rx="2.268" transform="translate(616.315 234.205)"/><rect class="i" width="66.52" height="4.535" rx="2.268" transform="translate(616.315 254.362)"/><rect class="i" width="40.315" height="4.535" rx="2.268" transform="translate(616.315 274.52)"/><rect class="i" width="58.457" height="4.535" rx="2.268" transform="translate(616.315 294.677)"/><rect class="i" width="40.315" height="4.535" rx="2.268" transform="translate(616.315 314.835)"/><rect class="l" width="40.315" height="4.535" rx="2.268" transform="translate(720.126 172.724)"/><rect class="l" width="26.709" height="4.535" rx="2.268" transform="translate(763.968 172.724)"/><g transform="translate(1111.434 169.662)"><g class="m" transform="translate(0 0)"><g transform="translate(0 0)"><path class="i" d="M4.6,5.6a.482.482,0,0,0,.416-.536.067.067,0,0,0,0-.021L4.4,1.3,7.069-1.358a.484.484,0,0,0,0-.682.475.475,0,0,0-.266-.137L3.09-2.749,1.4-6.137A.476.476,0,0,0,.763-6.35a.49.49,0,0,0-.214.214L-1.136-2.749l-3.717.572a.48.48,0,0,0-.4.551.477.477,0,0,0,.135.268L-2.444,1.3l-.611,3.738a.481.481,0,0,0,.392.553.473.473,0,0,0,.3-.047L.977,3.806,4.316,5.547A.471.471,0,0,0,4.6,5.6" transform="translate(5.256 6.401)"/></g></g></g><rect class="i" width="17.638" height="4.535" rx="2.268" transform="translate(1025.008 175.748)"/><rect class="i" width="26.709" height="4.535" rx="2.268" transform="translate(1046.173 175.748)"/><rect class="n" width="21.669" height="21.669" rx="3" transform="translate(720.63 234.205)"/><rect class="o" width="21.669" height="21.669" rx="3" transform="translate(720.63 276.535)"/><rect class="p" width="21.669" height="21.669" rx="3" transform="translate(720.126 318.866)"/><rect class="q" width="21.669" height="21.669" rx="3" transform="translate(720.126 361.197)"/><rect class="i" width="40.315" height="4.535" rx="2.268" transform="translate(751.874 285.102)"/><rect class="i" width="26.709" height="4.535" rx="2.268" transform="translate(797.228 285.102)"/><rect class="i" width="57.449" height="4.535" rx="2.268" transform="translate(751.874 321.89)"/><rect class="i" width="18.142" height="4.535" rx="2.268" transform="translate(814.362 321.89)"/><rect class="i" width="26.709" height="4.535" rx="2.268" transform="translate(837.543 321.89)"/><rect class="i" width="10.079" height="4.535" rx="2.268" transform="translate(751.874 242.772)"/><rect class="i" width="50.394" height="4.535" rx="2.268" transform="translate(766.992 242.772)"/><rect class="i" width="26.709" height="4.535" rx="2.268" transform="translate(822.425 242.772)"/><rect class="i" width="20.157" height="4.535" rx="2.268" transform="translate(751.874 369.764)"/><rect class="i" width="25.197" height="4.535" rx="2.268" transform="translate(777.071 369.764)"/><rect class="i" width="50.394" height="4.535" rx="2.268" transform="translate(807.307 369.764)"/><rect class="i" width="25.197" height="4.535" rx="2.268" transform="translate(862.74 369.764)"/><rect class="i" width="15.118" height="4.535" rx="2.268" transform="translate(854.173 242.772)"/><rect class="i" width="27.717" height="4.535" rx="2.268" transform="translate(874.331 242.772)"/><rect class="i" width="10.079" height="4.535" rx="2.268" transform="translate(751.874 332.977)"/><rect class="i" width="50.394" height="4.535" rx="2.268" transform="translate(766.992 332.977)"/><rect class="i" width="26.709" height="4.535" rx="2.268" transform="translate(822.425 332.977)"/><rect class="i" width="15.118" height="4.535" rx="2.268" transform="translate(854.173 332.977)"/><path class="e" d="M0,0H454.551a0,0,0,0,1,0,0V21.291a16,16,0,0,1-16,16H0a0,0,0,0,1,0,0V0A0,0,0,0,1,0,0Z" transform="translate(694.425 432.756)"/><rect class="r" width="21.669" height="21.669" rx="3" transform="translate(720.126 440.819)"/><text class="s" transform="translate(1087.496 180.181)"><tspan x="0" y="0">@</tspan></text><g class="z" transform="matrix(1, 0, 0, 1, 4886, 5075)"><rect class="e" width="151.899" height="222.788" rx="8" transform="translate(-3888.92 -4827.74)"/></g><path class="t" d="M8,0H143.9a8,8,0,0,1,8,8V30.464a0,0,0,0,1,0,0H0a0,0,0,0,1,0,0V8A8,8,0,0,1,8,0Z" transform="translate(997.077 247.259)"/><text class="u" transform="translate(725.166 455.323)"><tspan x="0" y="0">+</tspan></text><rect class="i" width="10.079" height="4.535" rx="2.268" transform="translate(828.976 285.102)"/><rect class="i" width="15.118" height="4.535" rx="2.268" transform="translate(844.095 285.102)"/><ellipse class="v" cx="7.307" cy="7.307" rx="7.307" ry="7.307" transform="translate(1006.362 255.37)"/><rect class="w" width="29.611" height="3.528" rx="1.764" transform="translate(1027.528 260.914)"/><rect class="w" width="19.617" height="3.528" rx="1.764" transform="translate(1059.73 260.914)"/><rect class="t" width="50.394" height="23.685" rx="8" transform="translate(1079.433 298.205)"/><rect class="r" width="84.157" height="36.787" rx="8" transform="translate(1027.528 337.512)"/><rect class="i" width="26.709" height="3.528" rx="1.764" transform="translate(1037.606 347.591)"/><rect class="i" width="10.079" height="3.528" rx="1.764" transform="translate(1069.354 347.591)"/><rect class="i" width="15.118" height="3.528" rx="1.764" transform="translate(1084.472 347.591)"/><rect class="i" width="26.709" height="3.528" rx="1.764" transform="translate(1037.606 361.197)"/><rect class="i" width="15.118" height="3.528" rx="1.764" transform="translate(1069.354 361.197)"/><rect class="r" width="10.079" height="3.528" rx="1.764" transform="translate(1087.496 308.284)"/><rect class="r" width="20.157" height="3.528" rx="1.764" transform="translate(1102.614 308.284)"/><ellipse class="r" cx="7.307" cy="7.307" rx="7.307" ry="7.307" transform="translate(1006.362 337.512)"/><path class="r" d="M0,0H151.9a0,0,0,0,1,0,0V17.245a8,8,0,0,1-8,8H8a8,8,0,0,1-8-8V0A0,0,0,0,1,0,0Z" transform="translate(997.077 444.802)"/><rect class="i" width="26.709" height="3.528" rx="1.764" transform="translate(1020.976 455.937)"/><rect class="i" width="10.079" height="3.528" rx="1.764" transform="translate(1052.724 455.937)"/><rect class="i" width="15.118" height="3.528" rx="1.764" transform="translate(1067.842 455.937)"/><rect class="r" width="55.433" height="23.685" rx="8" transform="translate(1027.528 390.425)"/><rect class="i" width="20.157" height="3.528" rx="1.764" transform="translate(1037.606 400.504)"/><rect class="i" width="10.079" height="3.528" rx="1.764" transform="translate(1062.803 400.504)"/><ellipse class="r" cx="7.307" cy="7.307" rx="7.307" ry="7.307" transform="translate(1006.362 390.425)"/></g></svg>