<svg xmlns="http://www.w3.org/2000/svg" xmlns:xlink="http://www.w3.org/1999/xlink" viewBox="-3696.205 -4507.729 37.568 37.568"><defs><style>.a{fill:none;}.b{clip-path:url(#a);}.c{fill:#fff;}.d{fill:#eff4f9;}.e{fill:#5b93fc;}</style><clipPath id="a"><path class="a" d="M0-399.479H37.568v37.568H0Z" transform="translate(0 399.479)"/></clipPath></defs><g transform="translate(-3696.205 -4507.728)"><g class="b"><g transform="translate(0 0)"><path class="c" d="M-361.911-180.956a18.784,18.784,0,0,0-18.784-18.784,18.784,18.784,0,0,0-18.784,18.784,18.714,18.714,0,0,0,4.836,12.581v3.085c0,1.722,1.053,3.118,2.351,3.118h12.476a1.8,1.8,0,0,0,.391-.044,18.784,18.784,0,0,0,17.514-18.74" transform="translate(399.479 199.74)"/></g><g transform="translate(0 0)"><path class="d" d="M-65.16-183.909a19.885,19.885,0,0,1,13.653-19.019c-.538-.046-1.082-.071-1.633-.071a18.777,18.777,0,0,0-18.784,18.784,20.347,20.347,0,0,0,4.752,12.666c.011.009.01.019.008.022-.665.753-4.117,6.1.045,6.1H-62.3c-2.633-.047,2.7-4.509.576-7.476a17.6,17.6,0,0,1-3.433-11" transform="translate(71.924 203)"/></g><g transform="matrix(0.999, 0.035, -0.035, 0.999, 15.489, 15.634)"><path class="e" d="M11.815,1.933c-.051-1.2-2.737-2.057-6-1.918S-.05,1.238,0,2.437c.008.185.038.259.01.116A6.19,6.19,0,0,0,5.886,8.282c3.138,0,5.7-2.72,5.914-6.162a.822.822,0,0,0,.015-.187" transform="translate(0 0)"/></g></g></g></svg>