<svg xmlns="http://www.w3.org/2000/svg" xmlns:xlink="http://www.w3.org/1999/xlink" viewBox="-1732 -4757 22 22"><defs><style>.a{fill:none;}.b{clip-path:url(#a);}.c{fill:#b6d6ff;}.d{fill:#5b93fc;}</style><clipPath id="a"><path class="a" d="M0-33.478H22v22H0Z" transform="translate(0 33.478)"/></clipPath></defs><g transform="translate(-1732 -4757)"><g class="b"><g transform="translate(0 0)"><path class="c" d="M-11.479-5.739a11,11,0,0,0-11-11,11,11,0,0,0-11,11,10.952,10.952,0,0,0,2.833,7.367s-2.633,3.633.616,3.633h8.066a1.031,1.031,0,0,0,.229-.026A11,11,0,0,0-11.479-5.739" transform="translate(33.479 16.738)"/></g><g transform="translate(6.657 9.792)"><path class="d" d="M-4.736-.771A4.462,4.462,0,0,1-9.274,3.767,4.462,4.462,0,0,1-13.813-.771c0-1.971,9.077-1.971,9.077,0" transform="translate(13.813 2.25)"/></g></g></g></svg>