<svg xmlns="http://www.w3.org/2000/svg" xmlns:xlink="http://www.w3.org/1999/xlink" viewBox="2055.337 -916 53.76 54.346">
  <defs>
    <style>
      .cls-1, .cls-4 {
        fill: none;
      }

      .cls-2 {
        clip-path: url(#clip-path);
      }

      .cls-3 {
        fill: #eff7fc;
      }

      .cls-4 {
        stroke: #6aafff;
        stroke-width: 3px;
      }

      .cls-5 {
        fill: #fff;
      }
    </style>
    <clipPath id="clip-path">
      <path id="Path_30" data-name="Path 30" class="cls-1" d="M0-17.74H42.662V23.943H0Z" transform="translate(-3.115 15.057)"/>
    </clipPath>
  </defs>
  <g id="Group_40" data-name="Group 40" transform="translate(2091.768 -912.753) rotate(70)">
    <g id="Group_39" data-name="Group 39" class="cls-2" transform="translate(1 -1)">
      <g id="Group_35" data-name="Group 35" transform="translate(1.043 1.042)">
        <path id="Path_26" data-name="Path 26" class="cls-3" d="M18.426,6.862a3.648,3.648,0,0,0-2.282-2.421A5.749,5.749,0,0,1,13.258,2.3L11.608.374a5.819,5.819,0,0,1-1.641-3.2A3.84,3.84,0,0,0,7.991-5.535l-1-.357L5.983-6.25A3.834,3.834,0,0,0,2.74-5.4,5.818,5.818,0,0,1-.556-3.96l-2.5.451a5.765,5.765,0,0,1-3.589-.167,3.647,3.647,0,0,0-3.3.432l-1.587,1.358a3.612,3.612,0,0,0-.964,3.181A5.292,5.292,0,0,1-13,4.814s-.067.119-.453,1.2-.409,1.216-.409,1.216a5.3,5.3,0,0,1-1.829,3.051,3.61,3.61,0,0,0-1.266,3.072l.371,2.056A3.645,3.645,0,0,0-14.3,17.829a5.761,5.761,0,0,1,2.887,2.142l1.65,1.925a5.816,5.816,0,0,1,1.644,3.2,3.833,3.833,0,0,0,1.973,2.713l1,.357,1.005.359A3.831,3.831,0,0,0-.9,27.671a5.813,5.813,0,0,1,3.3-1.439l2.5-.451a5.765,5.765,0,0,1,3.589.167,3.641,3.641,0,0,0,3.3-.434l1.587-1.356a3.622,3.622,0,0,0,.966-3.181,5.29,5.29,0,0,1,.511-3.521s.065-.119.451-1.2.411-1.216.411-1.216a5.289,5.289,0,0,1,1.829-3.051A3.611,3.611,0,0,0,18.8,8.917Z" transform="translate(16.972 6.321)"/>
      </g>
      <g id="Group_36" data-name="Group 36" transform="translate(1.043 1.042)">
        <path id="Path_27" data-name="Path 27" class="cls-4" d="M18.426,6.862a3.648,3.648,0,0,0-2.282-2.421A5.749,5.749,0,0,1,13.258,2.3L11.608.374a5.819,5.819,0,0,1-1.641-3.2A3.84,3.84,0,0,0,7.991-5.535l-1-.357L5.983-6.25A3.834,3.834,0,0,0,2.74-5.4,5.818,5.818,0,0,1-.556-3.96l-2.5.451a5.765,5.765,0,0,1-3.589-.167,3.647,3.647,0,0,0-3.3.432l-1.587,1.358a3.612,3.612,0,0,0-.964,3.181A5.292,5.292,0,0,1-13,4.814s-.067.119-.453,1.2-.409,1.216-.409,1.216a5.3,5.3,0,0,1-1.829,3.051,3.61,3.61,0,0,0-1.266,3.072l.371,2.056A3.645,3.645,0,0,0-14.3,17.829a5.761,5.761,0,0,1,2.887,2.142l1.65,1.925a5.816,5.816,0,0,1,1.644,3.2,3.833,3.833,0,0,0,1.973,2.713l1,.357,1.005.359A3.831,3.831,0,0,0-.9,27.671a5.813,5.813,0,0,1,3.3-1.439l2.5-.451a5.765,5.765,0,0,1,3.589.167,3.641,3.641,0,0,0,3.3-.434l1.587-1.356a3.622,3.622,0,0,0,.966-3.181,5.29,5.29,0,0,1,.511-3.521s.065-.119.451-1.2.411-1.216.411-1.216a5.289,5.289,0,0,1,1.829-3.051A3.611,3.611,0,0,0,18.8,8.917Z" transform="translate(16.972 6.321)"/>
      </g>
      <g id="Group_37" data-name="Group 37" transform="translate(11.04 10.606)">
        <path id="Path_28" data-name="Path 28" class="cls-5" d="M7.979,5.488A7.891,7.891,0,1,1,3.194-4.594,7.89,7.89,0,0,1,7.979,5.488" transform="translate(7.349 5.055)"/>
      </g>
      <g id="Group_38" data-name="Group 38" transform="translate(12.04 11.781)">
        <path id="Path_29" data-name="Path 29" class="cls-4" d="M5.867,4.036A6.8,6.8,0,0,1-2.826,8.161,6.8,6.8,0,0,1-6.952-.532,6.8,6.8,0,0,1,1.742-4.658,6.8,6.8,0,0,1,5.867,4.036Z" transform="translate(7.349 5.055)"/>
      </g>
    </g>
  </g>
</svg>
