<svg xmlns="http://www.w3.org/2000/svg" viewBox="2064.3 -756.505 37.505 37.505">
  <defs>
    <style>
      .cls-1 {
        fill: #2d333a;
      }

      .cls-2 {
        fill: #6aafff;
      }
    </style>
  </defs>
  <g id="Group_24" data-name="Group 24" transform="translate(2064.3 -756.505)">
    <rect id="Rectangle_126" data-name="Rectangle 126" class="cls-1" width="5.277" height="5.097" transform="matrix(0.948, -0.318, 0.318, 0.948, 15.441, 17.203)"/>
    <g id="Group_23" data-name="Group 23" transform="translate(0)">
      <rect id="Rectangle_127" data-name="Rectangle 127" class="cls-2" width="5.277" height="5.097" transform="matrix(0.948, -0.318, 0.318, 0.948, 15.441, 17.203)"/>
      <path id="Path_21" data-name="Path 21" class="cls-2" d="M110.69,86.752c-3.868-12.893-9.445-15.891-22.338-12.023S72.461,84.174,76.329,97.067s9.445,15.891,22.338,12.023S114.558,99.645,110.69,86.752Zm-6.506,8.365-2.429.81.84,2.519a1.946,1.946,0,0,1-1.229,2.459,1.674,1.674,0,0,1-.66.09,2,2,0,0,1-1.8-1.319l-.84-2.519L93.06,98.836l.84,2.519a1.946,1.946,0,0,1-1.229,2.459,1.675,1.675,0,0,1-.66.09,2,2,0,0,1-1.8-1.319l-.84-2.519-2.429.81a1.674,1.674,0,0,1-.66.09,2,2,0,0,1-1.8-1.319,1.946,1.946,0,0,1,1.229-2.459l2.429-.81L86.523,91.55l-2.429.81a1.674,1.674,0,0,1-.66.09,2,2,0,0,1-1.8-1.319,1.946,1.946,0,0,1,1.229-2.459l2.429-.81-.84-2.519a1.944,1.944,0,1,1,3.688-1.229l.84,2.519,5.007-1.679-.84-2.519a1.944,1.944,0,1,1,3.688-1.229l.84,2.519,2.429-.81a1.944,1.944,0,0,1,1.229,3.688l-2.429.81,1.619,4.827,2.429-.81a1.944,1.944,0,1,1,1.229,3.688Z" transform="translate(-74.757 -73.157)"/>
    </g>
  </g>
</svg>
