<svg xmlns="http://www.w3.org/2000/svg" xmlns:xlink="http://www.w3.org/1999/xlink" viewBox="2062.933 -1023 33.775 40.378">
  <defs>
    <style>
      .cls-1, .cls-4 {
        fill: none;
      }

      .cls-2 {
        clip-path: url(#clip-path);
      }

      .cls-3 {
        fill: #eff7fc;
      }

      .cls-4 {
        stroke: #6aafff;
        stroke-linecap: round;
        stroke-linejoin: round;
        stroke-width: 3px;
      }
    </style>
    <clipPath id="clip-path">
      <path id="Path_36" data-name="Path 36" class="cls-1" d="M0-17.131H33.775V23.247H0Z" transform="translate(0 17.131)"/>
    </clipPath>
  </defs>
  <g id="Group_48" data-name="Group 48" transform="translate(2065.146 -1020.571)">
    <g id="Group_47" data-name="Group 47" class="cls-2" transform="translate(-2.213 -2.429)">
      <g id="Group_45" data-name="Group 45" transform="translate(3.012 3.203)">
        <path id="Path_34" data-name="Path 34" class="cls-3" d="M11.589,0H-3.747a6.437,6.437,0,0,0-6.42,6.45V21.859a6.437,6.437,0,0,0,6.42,6.45h2.733l3.95,5.5A1.433,1.433,0,0,0,5.42,33.8l3.886-5.487h2.283a6.435,6.435,0,0,0,6.42-6.45V6.45A6.435,6.435,0,0,0,11.589,0" transform="translate(10.167)"/>
      </g>
      <g id="Group_46" data-name="Group 46" transform="translate(3.012 3.203)">
        <path id="Path_35" data-name="Path 35" class="cls-4" d="M11.589,0H-3.747a6.437,6.437,0,0,0-6.42,6.45V21.859a6.437,6.437,0,0,0,6.42,6.45h2.733l3.95,5.5A1.433,1.433,0,0,0,5.42,33.8l3.886-5.487h2.283a6.435,6.435,0,0,0,6.42-6.45V6.45A6.435,6.435,0,0,0,11.589,0Z" transform="translate(10.167)"/>
      </g>
    </g>
  </g>
</svg>
